<svg width="74" height="74" viewBox="0 0 74 74" fill="none" xmlns="http://www.w3.org/2000/svg">
<rect width="74" height="74" rx="37" fill="black"/>
<path fill-rule="evenodd" clip-rule="evenodd" d="M29.3956 18.0961C28.253 16.9536 26.2995 17.7627 26.2995 19.3785V36.401L18.0961 44.6044C16.9536 45.747 17.7627 47.7005 19.3785 47.7005H36.401L44.6044 55.9039C45.747 57.0464 47.7005 56.2373 47.7005 54.6215L47.7005 37.599L55.9039 29.3956C57.0464 28.253 56.2373 26.2995 54.6215 26.2995L37.599 26.2995L29.3956 18.0961ZM38.446 29.1915V34.1224C39.0633 34.4332 39.5668 34.9367 39.8776 35.554H45.6555L52.018 29.1915L38.446 29.1915ZM36.6721 37C36.6721 36.8198 36.8175 36.6735 36.9974 36.6722H37C37.181 36.6722 37.3278 36.819 37.3278 37C37.3278 37.181 37.181 37.3278 37 37.3278C36.8188 37.3278 36.6721 37.181 36.6721 37ZM35.554 28.3445L29.1915 21.982V35.554L34.1222 35.554C34.433 34.9367 34.9366 34.4331 35.554 34.1223V28.3445ZM34.1222 38.446L28.3445 38.446L21.982 44.8085H35.554L35.554 39.8777C34.9366 39.5669 34.433 39.0633 34.1222 38.446ZM38.446 45.6555V39.8776C39.0633 39.5668 39.5668 39.0633 39.8776 38.446H44.8085L44.8085 52.018L38.446 45.6555Z" fill="#F9FAFA"/>
</svg>